<?xml version="1.0" encoding="utf-8"?>
<!-- Generator: Adobe Illustrator 23.0.2, SVG Export Plug-In . SVG Version: 6.00 Build 0)  -->
<svg version="1.1" id="Layer_1" xmlns="http://www.w3.org/2000/svg" xmlns:xlink="http://www.w3.org/1999/xlink" x="0px" y="0px"
	 viewBox="0 0 10 10" style="enable-background:new 0 0 10 10;" xml:space="preserve">
<style type="text/css">
	.st0{fill:#999966;}
</style>
<path class="st0" d="M6.7,5l3-3c0.5-0.5,0.5-1.2,0-1.7C9.2-0.1,8.4-0.1,8,0.3l-3,3l-3-3c-0.5-0.5-1.2-0.5-1.7,0
	c-0.5,0.5-0.5,1.2,0,1.7l3,3l-3,3c-0.5,0.5-0.5,1.2,0,1.7C0.6,9.9,0.9,10,1.2,10C1.5,10,1.8,9.9,2,9.6l3-3l3,3
	C8.2,9.9,8.5,10,8.8,10s0.6-0.1,0.8-0.4c0.5-0.5,0.5-1.2,0-1.7L6.7,5z"/>
</svg>
